<svg width="22" height="20"><path fill-rule="evenodd" fill="#A3BBC8" d="M21.934 5.215l-3.717 8.56c.593.965-.421.489-.746.489H7.256c-.366 0-.691-.064-.786-.598L3.146 1.628H.813A.816.816 0 010 .814C0 .365.366.2.813.2h2.944c.366 0 .692.043.787.396l3.323 12.037h9.061l3.012-6.928H9.902c-.448 0-.022-.367-.022-.816 0-.449-.426-.159.022-.159h11.285c.272 0 .529-.52.679-.29.284.232.554.517.068.775zM6.483 16.302a1.848 1.848 0 010 3.696 1.848 1.848 0 010-3.696zm11.408 0c1.018-.068 1.899 1.498 1.967 1.848.027.367-.122.843-.447 1.209.439.381-.774.598-1.262.639h-.019c-.63 0-1.88-.761-1.948-1.726a1.85 1.85 0 011.709-1.97z"/></svg>