<svg width="20" height="20"><path fill-rule="evenodd" fill="#A3BBC8" d="M19.45 19.448a1.875 1.875 0 01-2.651 0L12.21 14.86a8.811 8.811 0 002.651-2.652l4.589 4.59c.732.732.732 1.92 0 2.65zm-11.951-4.45A7.5 7.5 0 010 7.498C0 3.357 3.358.2 7.499.2c4.142 0 7.5 3.157 7.5 7.298a7.5 7.5 0 01-7.5 7.5zm0-13.126a5.632 5.632 0 00-5.625 5.626 5.632 5.632 0 005.625 5.625 5.63 5.63 0 005.625-5.625 5.632 5.632 0 00-5.625-5.626zM4.374 7.498h-1.25c0-1.638 2.746-4.375 4.375-4.375v1.25a3.129 3.129 0 00-3.125 3.125z"/></svg>