<svg width="22" height="18"><path fill-rule="evenodd" fill="#A3BBC8" d="M21.989 5.82a6.211 6.211 0 00-1.848-4.101C19.15.609 17.545.1 16.1.1c-2.41 0-3.56 1.684-4.925 2.643-.05.055.535.113.005.17-.19-.032-.218-.064-.245-.094C10.132 1.903 8.46.1 5.998.1 4.454.1 2.984.609 1.859 1.719.749 2.812.93 4.268.1 5.82c.61 1.541.219 2.88 1.18 4.337.862 1.308 3.104 3.375 5.15 4.748 1.318 1.411 3.564 3.093 5.47 3.093.5 0 2.378-1.679 4.074-3.087 1.645-1.367 3.876-3.432 4.745-4.754.647-.984 2.231-2.366 1.27-4.337zm-2.376 3.61c-.632.96-2.412 2.735-4.43 4.417-2.406 2.005-3.831 2.795-4.083 2.826-.431-.035-1.859-.833-4.278-2.842-2.03-1.686-2.922-3.454-4.436-4.402-.796-1.206-1.121-2.298-1.054-3.538.134-2.519 2.228-4.57 4.666-4.57 1.862 0 3.216 1.543 3.943 2.37.427.488.663.756 1.059.756.408 0 .672-.287 1.15-.81.794-.866 2.122-2.316 3.95-2.316 2.34 0 4.433 2.051 4.567 4.57.068 1.254-.248 2.312-1.054 3.539z"/></svg>